<?xml version="1.0" encoding="utf-8"?>
<!-- Generator: Adobe Illustrator 18.1.1, SVG Export Plug-In . SVG Version: 6.00 Build 0)  -->
<svg version="1.1" id="Layer_1" xmlns="http://www.w3.org/2000/svg" xmlns:xlink="http://www.w3.org/1999/xlink" x="0px" y="0px"
	 viewBox="0 0 268 268" enable-background="new 0 0 268 268" xml:space="preserve">
<g>
	<path fill="#BF2F38" d="M268,0v268c-89.3,0-178.7,0-268,0L0,0C89.3,0,178.7,0,268,0"/>
	<path fill="#FFFFFF" d="M187.1,112.6l-22-53.1l-17.6,7.3L134,53.3l-13.5,13.5l-17.6-7.3l-22,53.1l53.1,22L187.1,112.6z M115.4,82.9
		l18.6-7.7l18.6,7.7L134,127.8L115.4,82.9z M163.7,62.9l20,48.3l-44.9,18.6L174.6,94l-25.2-25.2L163.7,62.9z M171,94l-34.3,34.3
		L156,81.5l-18.6-7.7l9.5-3.9L171,94z M134,57l10.9,10.9L134,72.4l-10.9-4.5L134,57z M84.3,111.2l20-48.3l14.2,5.9L93.4,94
		l35.8,35.8L84.3,111.2z M97.1,94l24.1-24.1l9.5,3.9L112,81.5l19.4,46.8L97.1,94z"/>
	<path fill="#FFFFFF" d="M80.7,208c-1-1.1-2.2-1.8-3.3-2.9c-0.6-0.6-1-1.1-1-2.1c0.1-1.3,1-2,2.3-2c0.6,0,1.1,0.1,1.6,0.4
		c0.4,0.2,0.6,0.6,0.7,1c0,0.2,0.1,0.3,0.1,0.5c0,0.1,0,0.2,0.1,0.3c0.1,0,0.1-0.1,0.1-0.1l0.2-2.4c0,0,0,0-0.1,0
		c-0.1,0-0.2,0-0.3,0c-0.2,0-0.4-0.1-0.6-0.1c-0.6-0.1-1.2-0.2-1.8-0.1c-1.7,0.1-3.2,0.9-3.5,2.6c-0.1,0.7-0.1,1.4,0.2,2.1
		c0.6,1.4,1.8,2.3,2.9,3.2c0.7,0.6,1.5,1.2,1.9,2.1c0.5,1.2,0.1,2.6-1,3.3c-1,0.5-2.7,0.4-3.5-0.5c-0.4-0.5-0.5-1-0.5-1.6
		c0-0.1,0-0.2-0.1-0.3c0,0-0.1,0-0.1,0l-0.2,2.7c0,0.1,0.1,0.1,0.2,0.2c0.4,0.2,0.9,0.3,1.3,0.4c1,0.2,2.1,0.2,3.1-0.2
		c0.5-0.2,0.9-0.4,1.2-0.7c1-0.9,1.4-2.2,1.2-3.6C81.7,209.3,81.3,208.6,80.7,208z"/>
	<path fill="#FFFFFF" d="M80,154.5c0.4,0,0.8,0,1.1-0.3c0.1-0.1,0.1-0.2-0.1-0.2l-12.4,0c-0.1,0.1-0.1,0.1-0.1,0.2
		c0.2,0.3,0.4,0.3,0.7,0.3c1,0,2.7-0.1,2.9,1.3l0,0c0,0.8-0.2,1.6-0.5,2.4l-12.3,31.6l-12.1-32c-0.2-0.6-0.4-1.2-0.5-1.8
		c0-0.6,0.4-1,1.1-1.2c0.5-0.1,1.2-0.1,1.8-0.1c0.3,0,0.5,0,0.7-0.3c0.1-0.1,0.1-0.2-0.1-0.2H35.2c-0.1,0-0.1,0.1-0.1,0.2
		c0.1,0.4,0.4,0.4,0.8,0.4c2.1,0.1,3.8,0.6,4.9,2.3c0.4,0.7,0.8,1.4,1.1,2.2l16.2,38.8l18.2-41.3C77,155.1,78.5,154.6,80,154.5z"/>
	<path fill="#FFFFFF" d="M99.2,201.2c0.1-0.2,0.3-0.2,0.5-0.2c0.2,0,0.4,0,0.6-0.1c0.1,0,0.1,0,0.2-0.1c0,0,0-0.1,0-0.1
		c-1.6,0-3,0-4.6,0c0,0,0,0,0,0.1c0,0.1,0.1,0.1,0.2,0.1c0.2,0,0.4,0,0.6,0.1c0.2,0,0.4,0.1,0.5,0.2c0.2,0.2,0.2,0.5,0.2,0.8
		c0,1.4,0,2.9,0,4.3h-7.6c0-1.4,0-2.9,0-4.3c0-0.3,0-0.6,0.2-0.8c0.1-0.2,0.3-0.2,0.5-0.2c0.2,0,0.4,0,0.6-0.1c0.1,0,0.1,0,0.2-0.1
		c0,0,0-0.1,0-0.1c-1.6,0-3,0-4.6,0c0,0,0,0,0,0.1c0,0.1,0.1,0.1,0.2,0.1c0.2,0,0.4,0,0.6,0.1c0.2,0,0.4,0.1,0.5,0.2
		c0.2,0.2,0.2,0.5,0.2,0.8c0,3.7,0,7.3,0,11c0,0.3,0,0.6-0.2,0.8c-0.1,0.2-0.3,0.2-0.5,0.2c-0.2,0-0.4,0.1-0.6,0.1
		c-0.1,0-0.1,0-0.2,0.1c0,0,0,0.1,0,0.1H91c0,0,0,0,0-0.1c0-0.1-0.1-0.1-0.2-0.1c-0.2,0-0.4,0-0.6-0.1c-0.2,0-0.4-0.1-0.5-0.2
		c-0.2-0.2-0.2-0.5-0.2-0.8c0-2,0-3.9,0-5.8h7.6c0,1.9,0,3.9,0,5.8c0,0.3,0,0.6-0.2,0.8c-0.1,0.2-0.3,0.2-0.5,0.2
		c-0.2,0-0.4,0.1-0.6,0.1c-0.1,0-0.1,0-0.2,0.1c0,0,0,0.1,0,0.1h4.6c0,0,0,0,0-0.1c0-0.1-0.1-0.1-0.2-0.1c-0.2,0-0.4,0-0.6-0.1
		c-0.2,0-0.4-0.1-0.5-0.2c-0.2-0.2-0.2-0.5-0.2-0.8c0-3.7,0-7.3,0-11C99,201.8,99.1,201.4,99.2,201.2z"/>
	<path fill="#FFFFFF" d="M195.2,207.6h-4.4c-0.1,0-0.1,0.1,0,0.2c0,0,0.1,0.1,0.2,0.1c0.3,0,0.6,0,0.8,0.1c0.4,0.2,0.5,0.4,0.5,0.8
		c0,0.3,0.1,0.6,0.1,0.8l0,3.2c0,0.2-0.1,0.3-0.2,0.5c-0.4,0.3-1,0.4-1.5,0.4c-0.4,0.1-0.9,0-1.3,0c-1.3-0.1-2.4-0.5-3.4-1.3
		c-1.5-1.2-2.4-3-2.6-4.9c-0.2-2.4,0.5-4.8,3-5.9c1.6-0.6,3.8-0.6,5.4,0.1c0.4,0.2,0.8,0.4,1.1,0.6c0.2,0.2,0.4,0.4,0.5,0.7
		c0.1,0.3,0.2,0.5,0.2,0.8c0,0.1,0,0.2,0.1,0.3c0.1,0.1,0.2,0.1,0.2,0c0.1-1,0.2-2,0.3-3.1c0-0.1-0.2-0.1-0.3-0.1
		c-0.2,0-0.4,0-0.7-0.1c-0.5-0.1-0.9-0.2-1.3-0.2c-1.8-0.3-3.6-0.3-5.3,0.2c-3.2,1-4.7,3.6-4.7,6.8c0,2.9,1.5,5.4,4.3,6.4
		c1.1,0.4,2.2,0.6,3.4,0.7c0.5,0,1,0,1.4,0c0.6-0.1,1.2-0.1,1.7-0.3c0.4-0.1,0.8-0.3,1.2-0.4c0.4-0.2,0.4-0.4,0.4-0.8l0-3.3
		c0-0.3,0-0.6,0-0.9c0-0.2,0-0.3,0.1-0.4c0.1-0.2,0.2-0.3,0.5-0.4c0.2,0,0.5,0,0.6-0.1C195.3,207.7,195.3,207.7,195.2,207.6z"/>
	<path fill="#FFFFFF" d="M176.8,200.8h-4.1c-0.1,0-0.1,0.1,0,0.2c0.1,0.1,0.3,0,0.4,0.1c1.1,0.1,1.3,0.6,1.3,1.7v8.9
		c-3.2-3.4-6.4-6.9-9.7-10.3c-0.2-0.2-0.5-0.5-0.7-0.6c-0.1-0.1-0.2-0.2-0.4-0.2c-0.2,0.1-0.2,0.4-0.2,0.6v11.3c0,0.2,0,0.5,0,0.7
		c-0.1,0.6-0.2,0.8-0.9,0.9c-0.1,0-0.2,0-0.3,0.1c-0.1,0.1-0.1,0.2,0,0.2h4.1c0.1,0,0.1-0.1,0-0.2c-0.1-0.1-0.3,0-0.4-0.1
		c-1.1-0.1-1.3-0.6-1.3-1.7v-9c3.3,3.5,6.4,6.9,9.7,10.3c0.2,0.2,0.5,0.4,0.7,0.7c0.1,0.1,0.2,0.2,0.4,0.2c0.2-0.1,0.2-0.4,0.2-0.6
		v-11.3c0-0.2,0-0.5,0-0.7c0.1-0.6,0.3-0.8,0.9-0.9c0.1,0,0.2,0,0.3-0.1C176.8,200.9,176.9,200.8,176.8,200.8z"/>
	<path fill="#FFFFFF" d="M232.9,186.5c-0.2,0-0.2,0-0.4,0.1c-0.1,0.1-0.1,0.2-0.2,0.4c-0.4,1.6-0.8,3.2-2.6,3.9
		c-2.2,0.8-6.4,0.7-8.7,0.1c-2-0.5-2.3-2-2.3-3.9l-0.1-26.3c0-0.7,0.1-1.6,0.5-2.1c0.3-0.4,0.8-0.5,1.3-0.7c0.5-0.1,1.1-0.1,1.6-0.1
		c0.2,0,0.3-0.1,0.4-0.2c0.1-0.1,0.1-0.2-0.1-0.2l-12.1,0c-0.1,0-0.1,0.1-0.1,0.2c0.1,0.2,0.3,0.2,0.4,0.2c0.6,0,1.3,0.1,1.9,0.2
		c1.4,0.4,1.7,1.4,1.7,2.7l-0.1,28.8c0,0.4-0.1,0.8-0.2,1.2c-0.1,0.4-0.4,0.8-0.7,1.1c-0.1,0.1-0.3,0.2-0.4,0.2
		c-0.2,0.1-0.4,0.1-0.6,0.1h0l0.1,0c-0.3,0-0.7,0.1-0.9,0.1c-0.1,0-0.3,0.1-0.3,0.2c-0.1,0.1-0.1,0.2,0,0.2l2.8,0l0,0l0,0h2.9l0.1,0
		l0,0h14.8L232.9,186.5z"/>
	<path fill="#FFFFFF" d="M209.6,157.5H199l-0.1,0l0,0.1l0,0.1l0,0l0,0l0,0l0,0l0,0l0,0l0,0l0,0l0,0l0,0l0,0l0,0h0h0.4l0.1,0h0.1
		l0.1,0l0,0l0.1,0l0,0l0,0l0.1,0h0.1l0.1,0l0.1,0l0.1,0l0.1,0l0.1,0l0.1,0l0.1,0l0.1,0l0.1,0l0.1,0l0.1,0l0,0l0,0l0,0l0,0l0.3,0.1
		l0.3,0.1l0.2,0.1l0.2,0.1l0.2,0.1l0.2,0.1l0.1,0.1l0.1,0.1l0,0.1l0,0.1l0,0.1l0,0.1l0,0.1l0,0.1l0,0.1l0,0.1l0,0.1l0,0.1l0,0.1
		l0,0.1l0,0.1l0,0.1l0,0.1l0,0.2v0.1l0,0.1l0,0.2l0,0.1l0,0.2l0,0.2l0,0.2l0,0.2l0,0.2l0,0.2l0,0.2l0,0.2l0,0.2l0,0.2v0.2v0.2v0.2
		c0,4.6,0.1,9.1,0,13.7c-0.1,7.6-3.1,14.4-10.6,14.3c-7.8-0.2-10.3-6.4-10.3-14.3v-13.7v-0.2v-0.2l0-0.2l0-0.2l0-0.2l0-0.2l0-0.2
		l0-0.2l0-0.2l0-0.2l0-0.2l0-0.2l0-0.2l0-0.1l0-0.2l0-0.1v-0.1l0-0.1l0-0.1l0-0.1l0-0.1l0-0.1l0-0.1l0-0.1l0-0.1l0-0.1l0-0.1l0-0.1
		l0-0.1l0-0.1l0-0.1l0-0.1l0-0.1l0.1-0.2l0.1-0.1l0.1-0.1l0.1-0.1l0.2-0.1l0.2-0.1l0.2-0.1l0.2,0l0.1,0l0.1,0l0.1,0l0.1,0l0.1,0
		l0.1,0l0.1,0l0.1,0l0.1,0l0.1,0l0.1,0l0.1,0l0.1,0l0,0h0l0.1,0h0.1h0l0,0l0,0l0,0l0,0l0,0l0,0l0,0l0,0l0,0l0,0l0,0l0,0l0-0.1l0-0.1
		l-0.1,0h-11.7c-0.1,0-0.1,0.1,0,0.2c0.1,0.1,0.2,0.2,0.4,0.2c0.7,0,1.4,0.1,2.1,0.3c1.1,0.4,1.3,1.2,1.4,2.2
		c0.1,1.1,0.1,2.2,0.1,3.4v13.5c0,9.6,4.1,16.6,14.6,16.3c9-0.4,13.2-6.1,13.6-16.2c0.1-4.6,0-9.1,0-13.7v-0.2v-0.2l0-0.2l0-0.2
		l0-0.2l0-0.2l0-0.2l0-0.2l0-0.2l0-0.2l0-0.2l0-0.2l0-0.2l0-0.1l0-0.2l0-0.1v-0.1l0-0.2l0-0.1l0-0.1l0-0.1l0-0.1l0-0.1l0-0.1l0-0.1
		l0-0.1l0-0.1l0-0.1l0-0.1l0-0.1l0-0.1l0-0.1l0-0.1l0.1-0.1l0.1-0.1l0.1-0.1l0.2-0.1l0.2-0.1l0.2-0.1l0.2-0.1l0.2-0.1l0.1,0l0.1,0
		l0.1,0l0.1,0l0.1,0l0.1,0l0.1,0l0.1,0l0.1,0l0.1,0h0.1l0.1,0l0.1,0h0l0.1,0h0h0.1h0l0,0l0,0l0,0l0,0l0,0l0,0l0,0l0,0l0,0l0,0l0,0
		l0,0L209.6,157.5L209.6,157.5L209.6,157.5z"/>
	<path fill="#FFFFFF" d="M112.8,200.4C112.8,200.4,112.8,200.4,112.8,200.4L112.8,200.4c-4,0.1-7.2,3.1-7.2,7.1
		c0,4.7,3.6,7.1,7.2,7.1s7.2-2.4,7.2-7.1C120,203.5,116.7,200.4,112.8,200.4z M112.9,213.9c-0.1,0-0.2,0-0.3,0
		c-3.6-0.1-5.2-3-5.2-6.4c0-3.4,1.6-6.3,5.2-6.4c0.1,0,0.2,0,0.3,0c3.6,0.1,5.2,3,5.2,6.4C118.2,210.9,116.5,213.8,112.9,213.9z"/>
	<path fill="#FFFFFF" d="M169.4,193.6c3.2-2.8,4.4-7.1,3.8-11.3c-0.4-2.6-1.8-4.7-3.5-6.7c-3.1-3.5-7.1-5.8-10.4-9.1
		c-1.9-1.9-3.1-3.6-3-6.5c0.3-4,3.2-6.2,7.3-6.2c1.8,0,3.6,0.3,5.2,1.3c1.2,0.7,1.8,1.7,2.2,3.1c0.1,0.5,0.2,1,0.3,1.5
		c0,0.3,0.1,0.7,0.4,0.8c0.2,0.1,0.2-0.2,0.2-0.4l0.5-7.4c0-0.1-0.1-0.1-0.2-0.1c-0.3,0-0.6,0-0.9,0c-0.6-0.1-1.2-0.2-1.9-0.3
		c-1.9-0.4-3.7-0.5-5.6-0.5c-5.4,0.2-10,3-11.1,8.2c-0.4,2.4-0.2,4.5,0.6,6.6c1.8,4.4,5.7,7.2,9.3,10.2c2.2,1.9,4.8,3.8,5.9,6.6
		c1.4,3.7,0.3,8.3-3.3,10.3c-3.2,1.7-8.5,1.2-11.2-1.7c-1.3-1.5-1.6-3.3-1.7-5.2c0-0.4,0-0.7-0.3-0.9c-0.1,0-0.2,0-0.2,0.1l-0.7,8.4
		c0,0.3,0.2,0.5,0.5,0.6c1.1,0.7,2.8,1.1,4.1,1.3c3.2,0.5,6.6,0.5,9.7-0.5C166.9,195.3,168.2,194.6,169.4,193.6z"/>
	<path fill="#FFFFFF" d="M126.1,192.8l13.3,0l1.2-6.3c-0.2,0-0.3,0-0.4,0.1c-0.1,0.1-0.1,0.2-0.2,0.4c-0.4,1.6-0.8,3.2-2.6,3.9
		c-2.2,0.8-4.9,0.7-7.2,0.1c-2-0.5-2.3-2-2.3-3.9l-0.1-12.1c0-0.1,0.1-0.2,0.2-0.2c2.2-0.1,4.7,0,6.9,0.3c1.1,0.2,1.8,0.6,2.2,1.7
		c0.1,0.5,0.2,0.9,0.2,1.4c0,0.2,0,0.3,0.2,0.4c0.1,0.1,0.2,0.1,0.3,0.1c0,0,0.1,0,0.1-0.1l0.7-7c0-0.1,0-0.1-0.1-0.1
		c-0.2,0-0.5,0.4-0.6,0.6c-0.4,0.5-1.1,0.5-1.7,0.6c-1.4,0.2-2.9,0.2-4.3,0.2h-3.7c-0.2,0-0.2-0.2-0.2-0.4v-13.2
		c0-0.2,0-0.4,0.2-0.4c2.1,0,4.3-0.1,6.3,0.1c1,0.1,2.2,0.2,3,0.9c0.5,0.5,0.6,1.1,0.7,1.8c0,0.4,0,0.8,0.2,1.1
		c0.1,0.1,0.3,0.2,0.3,0l0.7-5.6c-6.6,0-13.2,0-19.8,0c-0.1,0-0.1,0.1-0.1,0.2c0.1,0.2,0.3,0.2,0.4,0.2c0.6,0,1.3,0.1,1.9,0.2
		c1.4,0.4,1.7,1.4,1.7,2.7l-0.1,28.8v0c0,0.8-0.2,1.8-0.9,2.3c-0.5,0.4-1.3,0.4-1.9,0.4c-0.2,0-0.3,0.1-0.4,0.2
		c-0.1,0.1-0.1,0.2,0,0.2L126.1,192.8L126.1,192.8z"/>
	<path fill="#FFFFFF" d="M119.7,187c-0.4,1.6-0.8,3.2-2.6,3.9c-2.2,0.8-6.4,0.7-8.7,0.1c-2-0.5-2.3-2-2.3-3.9l-0.1-26.3
		c0-0.7,0.1-1.6,0.5-2.1c0.3-0.4,0.8-0.6,1.3-0.7c0.5-0.1,1.1-0.1,1.6-0.1c0.2,0,0.3-0.1,0.4-0.2c0.1-0.1,0.1-0.2-0.1-0.2l-12.1,0
		c-0.1,0-0.1,0.1-0.1,0.2c0.1,0.2,0.3,0.2,0.4,0.2c0.6,0,1.3,0.1,1.9,0.2c1.4,0.4,1.7,1.4,1.7,2.7l-0.1,28.8c0,0.9-0.3,2.1-1.2,2.5
		c-0.3,0.1-0.5,0.1-0.8,0.2h0c-2.8-0.5-3.9-3.1-4.8-5.4l-12.2-30.5l-13.1,33.9c-0.7,1.8-2.5,2.2-4.2,2.2c-0.2,0-0.4,0.1-0.5,0.2
		c0,0.1,0,0.1,0.1,0.2l10.7,0c0.1,0,0.1-0.3-0.2-0.3c-0.3-0.1-1-0.1-1.3-0.2c-1.8-0.5-1.2-2.2-0.9-3.5c0.1-0.3,0.2-0.6,0.3-0.9
		l3-8.6h10.7l4.6,11.8c0.2,0.4,0.1,1.3-0.4,1.3c-0.3,0-0.4,0.4-0.1,0.4l9.9,0l0,0H119l1.2-6.3c-0.2,0-0.2,0-0.4,0.1
		C119.8,186.7,119.7,186.8,119.7,187z M77.3,177.3l4.4-13.4l4.8,13.4H77.3z"/>
	<path fill="#FFFFFF" d="M155.7,201.2c0.1-0.2,0.3-0.2,0.5-0.2c0.2,0,0.4,0,0.6-0.1c0.1,0,0.1,0,0.2-0.1c0,0,0-0.1,0-0.1
		c-1.6,0-3,0-4.6,0c0,0,0,0,0,0.1c0,0.1,0.1,0.1,0.2,0.1c0.2,0,0.4,0,0.6,0.1c0.2,0,0.4,0.1,0.5,0.2c0.2,0.2,0.2,0.5,0.2,0.8
		c0,3.7,0,7.3,0,11c0,0.3,0,0.6-0.2,0.8c-0.1,0.2-0.3,0.2-0.5,0.2c-0.2,0-0.4,0.1-0.6,0.1c-0.1,0-0.1,0-0.2,0.1c0,0,0,0.1,0,0.1h4.6
		c0,0,0,0,0-0.1c0-0.1-0.1-0.1-0.2-0.1c-0.2,0-0.4,0-0.6-0.1c-0.2,0-0.4-0.1-0.5-0.2c-0.2-0.2-0.2-0.5-0.2-0.8c0-3.7,0-7.3,0-11
		C155.5,201.8,155.6,201.4,155.7,201.2z"/>
	<path fill="#FFFFFF" d="M143.4,200.8h-4.7c-0.1,0-0.1,0.2,0.1,0.2c0.1,0,0.2,0,0.3,0c0.2,0,0.5,0,0.7,0.1c0.4,0.2,0.5,0.5,0.6,0.9
		v1.1c0,1.6,0,5.5,0,8.2c0,0.7,0,1.4-0.2,2.1c-0.1,0.2-0.1,0.4-0.4,0.4c-0.2,0-0.3,0.1-0.5,0.1c-0.1,0-0.2,0-0.2,0.1
		c-0.1,0.1-0.1,0.2,0,0.2h4.6c0.1,0,0.1-0.1,0.1-0.1c0-0.1-0.1-0.1-0.2-0.1c-0.3,0-0.6,0-0.9-0.1c-0.3-0.1-0.4-0.3-0.5-0.6
		c-0.2-0.7-0.1-1.4-0.1-2.1c0-1.2,0-2.4,0-3.6l0.9,0.4c2.7,0.8,5.2-1.7,5-4.4C147.4,201.6,145.6,200.8,143.4,200.8z M141.9,207.7
		l0-5.9c0-0.2,0-0.3,0.2-0.3c0.3-0.1,0.6-0.1,0.9-0.1c0.5,0,1,0.1,1.5,0.4c0.8,0.5,1.2,1.2,1.5,2.1
		C146.7,206.7,144.6,208.4,141.9,207.7z"/>
	<path fill="#FFFFFF" d="M129.5,200.8h-4.7c-0.1,0-0.1,0.2,0.1,0.2c0.1,0,0.2,0,0.3,0c0.2,0,0.5,0,0.7,0.1c0.4,0.2,0.5,0.5,0.6,0.9
		v1.1c0,1.6,0,5.5,0,8.2c0,0.7,0,1.4-0.2,2.1c-0.1,0.2-0.1,0.4-0.4,0.4c-0.2,0-0.3,0.1-0.5,0.1c-0.1,0-0.2,0-0.2,0.1
		c-0.1,0.1-0.1,0.2,0,0.2h4.6c0.1,0,0.1-0.1,0.1-0.1c0-0.1-0.1-0.1-0.2-0.1c-0.3,0-0.6,0-0.9-0.1c-0.3-0.1-0.4-0.3-0.5-0.6
		c-0.1-0.7-0.1-1.4-0.1-2.1c0-1.2,0-2.4,0-3.6l0.9,0.4c1.2,0.4,2.3,0.1,3.3-0.6c1.2-0.9,1.8-2.3,1.7-3.8
		C133.5,201.6,131.7,200.8,129.5,200.8z M131.6,206.9c-1.1,1.2-2.2,1.2-3.6,0.8l0-5.9c0-0.2,0-0.3,0.2-0.3c0.3-0.1,0.6-0.1,0.9-0.1
		c0.5,0,1,0.1,1.5,0.4c0.8,0.5,1.3,1.2,1.5,2.1C132.4,205,132.3,206,131.6,206.9z"/>
</g>
</svg>
